<?xml version="1.0" encoding="UTF-8" standalone="no"?>
<!DOCTYPE svg PUBLIC "-//W3C//DTD SVG 1.1//EN"
 "http://www.w3.org/Graphics/SVG/1.1/DTD/svg11.dtd">
<!-- Generated by graphviz version 2.40.1 (20161225.0304)
 -->
<!-- Title: isuconp Pages: 1 -->
<svg width="932pt" height="309pt"
 viewBox="0.00 0.00 931.50 309.00" xmlns="http://www.w3.org/2000/svg" xmlns:xlink="http://www.w3.org/1999/xlink">
<g id="graph0" class="graph" transform="scale(1 1) rotate(0) translate(4 305)">
<title>isuconp</title>
<polygon fill="#ffffff" stroke="transparent" points="-4,4 -4,-305 927.5,-305 927.5,4 -4,4"/>
<!-- comments -->
<g id="node1" class="node">
<title>comments</title>
<polygon fill="#efefef" stroke="transparent" points="43,-207.5 43,-242.5 267,-242.5 267,-207.5 43,-207.5"/>
<polygon fill="none" stroke="#000000" points="43,-207.5 43,-242.5 267,-242.5 267,-207.5 43,-207.5"/>
<text text-anchor="start" x="49.7134" y="-220.3" font-family="Arial Bold" font-size="18.00" fill="#000000">comments</text>
<text text-anchor="start" x="132.7186" y="-220.3" font-family="Arial" font-size="14.00" fill="#000000">    </text>
<text text-anchor="start" x="166.9234" y="-220.3" font-family="Arial" font-size="14.00" fill="#666666">[BASE TABLE]</text>
<polygon fill="none" stroke="#000000" points="43,-177.5 43,-207.5 267,-207.5 267,-177.5 43,-177.5"/>
<text text-anchor="start" x="50" y="-188.9" font-family="Arial" font-size="14.00" fill="#000000">id    </text>
<text text-anchor="start" x="95.094" y="-188.9" font-family="Arial" font-size="14.00" fill="#666666">[int]</text>
<polygon fill="none" stroke="#000000" points="43,-147.5 43,-177.5 267,-177.5 267,-147.5 43,-147.5"/>
<text text-anchor="start" x="50" y="-158.9" font-family="Arial" font-size="14.00" fill="#000000">post_id    </text>
<text text-anchor="start" x="129.3324" y="-158.9" font-family="Arial" font-size="14.00" fill="#666666">[int]</text>
<polygon fill="none" stroke="#000000" points="43,-117.5 43,-147.5 267,-147.5 267,-117.5 43,-117.5"/>
<text text-anchor="start" x="50" y="-128.9" font-family="Arial" font-size="14.00" fill="#000000">user_id    </text>
<text text-anchor="start" x="130.1024" y="-128.9" font-family="Arial" font-size="14.00" fill="#666666">[int]</text>
<polygon fill="none" stroke="#000000" points="43,-87.5 43,-117.5 267,-117.5 267,-87.5 43,-87.5"/>
<text text-anchor="start" x="50" y="-98.9" font-family="Arial" font-size="14.00" fill="#000000">comment    </text>
<text text-anchor="start" x="141.7644" y="-98.9" font-family="Arial" font-size="14.00" fill="#666666">[text]</text>
<polygon fill="none" stroke="#000000" points="43,-57.5 43,-87.5 267,-87.5 267,-57.5 43,-57.5"/>
<text text-anchor="start" x="50" y="-68.9" font-family="Arial" font-size="14.00" fill="#000000">created_at    </text>
<text text-anchor="start" x="150.3422" y="-68.9" font-family="Arial" font-size="14.00" fill="#666666">[timestamp]</text>
</g>
<!-- posts -->
<g id="node2" class="node">
<title>posts</title>
<polygon fill="#efefef" stroke="transparent" points="371,-222.5 371,-257.5 557,-257.5 557,-222.5 371,-222.5"/>
<polygon fill="none" stroke="#000000" points="371,-222.5 371,-257.5 557,-257.5 557,-222.5 371,-222.5"/>
<text text-anchor="start" x="378.7087" y="-235.3" font-family="Arial Bold" font-size="18.00" fill="#000000">posts</text>
<text text-anchor="start" x="421.7233" y="-235.3" font-family="Arial" font-size="14.00" fill="#000000">    </text>
<text text-anchor="start" x="455.9281" y="-235.3" font-family="Arial" font-size="14.00" fill="#666666">[BASE TABLE]</text>
<polygon fill="none" stroke="#000000" points="371,-192.5 371,-222.5 557,-222.5 557,-192.5 371,-192.5"/>
<text text-anchor="start" x="378" y="-203.9" font-family="Arial" font-size="14.00" fill="#000000">id    </text>
<text text-anchor="start" x="423.094" y="-203.9" font-family="Arial" font-size="14.00" fill="#666666">[int]</text>
<polygon fill="none" stroke="#000000" points="371,-162.5 371,-192.5 557,-192.5 557,-162.5 371,-162.5"/>
<text text-anchor="start" x="378" y="-173.9" font-family="Arial" font-size="14.00" fill="#000000">user_id    </text>
<text text-anchor="start" x="458.1024" y="-173.9" font-family="Arial" font-size="14.00" fill="#666666">[int]</text>
<polygon fill="none" stroke="#000000" points="371,-132.5 371,-162.5 557,-162.5 557,-132.5 371,-132.5"/>
<text text-anchor="start" x="378" y="-143.9" font-family="Arial" font-size="14.00" fill="#000000">mime    </text>
<text text-anchor="start" x="446.4152" y="-143.9" font-family="Arial" font-size="14.00" fill="#666666">[varchar(64)]</text>
<polygon fill="none" stroke="#000000" points="371,-102.5 371,-132.5 557,-132.5 557,-102.5 371,-102.5"/>
<text text-anchor="start" x="378" y="-113.9" font-family="Arial" font-size="14.00" fill="#000000">imgdata    </text>
<text text-anchor="start" x="461.993" y="-113.9" font-family="Arial" font-size="14.00" fill="#666666">[mediumblob]</text>
<polygon fill="none" stroke="#000000" points="371,-72.5 371,-102.5 557,-102.5 557,-72.5 371,-72.5"/>
<text text-anchor="start" x="378" y="-83.9" font-family="Arial" font-size="14.00" fill="#000000">body    </text>
<text text-anchor="start" x="442.5526" y="-83.9" font-family="Arial" font-size="14.00" fill="#666666">[text]</text>
<polygon fill="none" stroke="#000000" points="371,-42.5 371,-72.5 557,-72.5 557,-42.5 371,-42.5"/>
<text text-anchor="start" x="377.6599" y="-53.9" font-family="Arial" font-size="14.00" fill="#000000">created_at    </text>
<text text-anchor="start" x="478.0021" y="-53.9" font-family="Arial" font-size="14.00" fill="#666666">[timestamp]</text>
</g>
<!-- users -->
<g id="node3" class="node">
<title>users</title>
<polygon fill="#efefef" stroke="transparent" points="662,-222.5 662,-257.5 881,-257.5 881,-222.5 662,-222.5"/>
<polygon fill="none" stroke="#000000" points="662,-222.5 662,-257.5 881,-257.5 881,-222.5 662,-222.5"/>
<text text-anchor="start" x="685.7137" y="-235.3" font-family="Arial Bold" font-size="18.00" fill="#000000">users</text>
<text text-anchor="start" x="729.7183" y="-235.3" font-family="Arial" font-size="14.00" fill="#000000">    </text>
<text text-anchor="start" x="763.9231" y="-235.3" font-family="Arial" font-size="14.00" fill="#666666">[BASE TABLE]</text>
<polygon fill="none" stroke="#000000" points="662,-192.5 662,-222.5 881,-222.5 881,-192.5 662,-192.5"/>
<text text-anchor="start" x="669" y="-203.9" font-family="Arial" font-size="14.00" fill="#000000">id    </text>
<text text-anchor="start" x="714.094" y="-203.9" font-family="Arial" font-size="14.00" fill="#666666">[int]</text>
<polygon fill="none" stroke="#000000" points="662,-162.5 662,-192.5 881,-192.5 881,-162.5 662,-162.5"/>
<text text-anchor="start" x="668.8233" y="-173.9" font-family="Arial" font-size="14.00" fill="#000000">account_name    </text>
<text text-anchor="start" x="794.8401" y="-173.9" font-family="Arial" font-size="14.00" fill="#666666">[varchar(64)]</text>
<polygon fill="none" stroke="#000000" points="662,-132.5 662,-162.5 881,-162.5 881,-132.5 662,-132.5"/>
<text text-anchor="start" x="669" y="-143.9" font-family="Arial" font-size="14.00" fill="#000000">passhash    </text>
<text text-anchor="start" x="763.1178" y="-143.9" font-family="Arial" font-size="14.00" fill="#666666">[varchar(128)]</text>
<polygon fill="none" stroke="#000000" points="662,-102.5 662,-132.5 881,-132.5 881,-102.5 662,-102.5"/>
<text text-anchor="start" x="669" y="-113.9" font-family="Arial" font-size="14.00" fill="#000000">authority    </text>
<text text-anchor="start" x="756.8836" y="-113.9" font-family="Arial" font-size="14.00" fill="#666666">[tinyint(1)]</text>
<polygon fill="none" stroke="#000000" points="662,-72.5 662,-102.5 881,-102.5 881,-72.5 662,-72.5"/>
<text text-anchor="start" x="669" y="-83.9" font-family="Arial" font-size="14.00" fill="#000000">del_flg    </text>
<text text-anchor="start" x="744.439" y="-83.9" font-family="Arial" font-size="14.00" fill="#666666">[tinyint(1)]</text>
<polygon fill="none" stroke="#000000" points="662,-42.5 662,-72.5 881,-72.5 881,-42.5 662,-42.5"/>
<text text-anchor="start" x="669" y="-53.9" font-family="Arial" font-size="14.00" fill="#000000">created_at    </text>
<text text-anchor="start" x="769.3422" y="-53.9" font-family="Arial" font-size="14.00" fill="#666666">[timestamp]</text>
</g>
</g>
</svg>
